<svg viewBox="0 0 30 30" fill="none" xmlns="http://www.w3.org/2000/svg">
<path d="M29.9516 7.00646C29.9319 6.94665 29.9056 6.88914 29.8732 6.83497V6.80925C29.8338 6.74946 29.7869 6.69473 29.7338 6.64634L29.6945 6.61204C29.6448 6.572 29.5907 6.53749 29.5333 6.50915H29.5115L15.3549 0.0783044C15.2408 0.0267113 15.1167 0 14.9911 0C14.8655 0 14.7414 0.0267113 14.6272 0.0783044L0.470583 6.50915H0.448797C0.391367 6.53749 0.337299 6.572 0.287579 6.61204L0.248364 6.64634C0.195187 6.69473 0.148349 6.74946 0.108933 6.80925V6.83497C0.0764791 6.88914 0.0501774 6.94665 0.0305032 7.00646V7.05791C0.0108061 7.1292 0.000554446 7.20269 2.66901e-06 7.27656V22.7106C-0.000409776 22.8746 0.0469874 23.0353 0.136573 23.1736C0.226159 23.3119 0.354175 23.422 0.505441 23.4909L14.6621 29.9217C14.7762 29.9733 14.9003 30 15.0259 30C15.1515 30 15.2756 29.9733 15.3897 29.9217L29.5464 23.4909C29.6879 23.4148 29.8052 23.3016 29.8852 23.1638C29.9652 23.0261 30.0048 22.8692 29.9995 22.7106V7.27656C29.999 7.20269 29.9887 7.1292 29.969 7.05791L29.9516 7.00646ZM14.9714 1.80177L27.0453 7.27656L14.9714 12.7513L2.89756 7.27656L14.9714 1.80177ZM1.68625 8.61417L14.1 14.2433V27.7909L1.68625 22.1618V8.61417ZM15.8429 27.7909V14.2433L28.2566 8.61417V22.1618L15.8429 27.7909Z" fill="black"/>
</svg>
