<svg viewBox="0 0 40 40" fill="none" xmlns="http://www.w3.org/2000/svg">
<rect width="40" height="40" rx="10" fill="#F8F9FA"/>
<path d="M29.9677 14.671C29.9546 14.6311 29.9371 14.5928 29.9155 14.5566V14.5395C29.8892 14.4996 29.858 14.4632 29.8225 14.4309L29.7964 14.408C29.7632 14.3813 29.7272 14.3583 29.6889 14.3394H29.6744L20.2366 10.0522C20.1605 10.0178 20.0778 10 19.994 10C19.9103 10 19.8276 10.0178 19.7515 10.0522L10.3137 14.3394H10.2992C10.2609 14.3583 10.2249 14.3813 10.1917 14.408L10.1656 14.4309C10.1301 14.4632 10.0989 14.4996 10.0726 14.5395V14.5566C10.051 14.5928 10.0335 14.6311 10.0203 14.671V14.7053C10.0072 14.7528 10.0004 14.8018 10 14.851V25.1404C9.99973 25.2497 10.0313 25.3568 10.091 25.449C10.1508 25.5412 10.2361 25.6146 10.337 25.6606L19.7747 29.9478C19.8508 29.9822 19.9335 30 20.0173 30C20.101 30 20.1837 29.9822 20.2598 29.9478L29.6976 25.6606C29.7919 25.6099 29.8701 25.5344 29.9235 25.4425C29.9768 25.3507 30.0032 25.2461 29.9997 25.1404V14.851C29.9993 14.8018 29.9925 14.7528 29.9794 14.7053L29.9677 14.671ZM19.981 11.2012L28.0302 14.851L19.981 18.5009L11.9317 14.851L19.981 11.2012ZM11.1242 15.7428L19.4 19.4955V28.5273L11.1242 24.7745V15.7428ZM20.5619 28.5273V19.4955L28.8378 15.7428V24.7745L20.5619 28.5273Z" fill="#70777D"/>
</svg>
