<svg viewBox="0 0 40 40" fill="none" xmlns="http://www.w3.org/2000/svg">
<path fill-rule="evenodd" clip-rule="evenodd" d="M30.9565 4.11247H32.0599L32.0557 4.11671C33.0318 4.11671 33.9485 4.49443 34.6403 5.18621C35.3321 5.87798 35.7141 6.79894 35.7141 7.77507V36.3416C35.7141 37.3178 35.3321 38.2345 34.6403 38.9263C33.9528 39.618 33.0318 40 32.0557 40H10.6276C9.64721 40 8.7305 39.618 8.03873 38.9263C7.35119 38.2387 6.96923 37.3178 6.96923 36.3416V14.9899C6.96923 14.5019 7.06684 14.0265 7.25358 13.5767C7.44456 13.1268 7.71618 12.7279 8.06419 12.3841L9.78302 10.695L8.79416 9.70186C8.39947 9.93952 7.95385 10.0668 7.50822 10.0668C6.86313 10.0668 6.21804 9.82069 5.72997 9.32838C5.25889 8.85305 5 8.22493 5 7.55438C5 6.88382 5.26313 6.2557 5.73846 5.78462L8.67958 2.85623C9.15491 2.38515 9.77878 2.12626 10.4536 2.12626C11.1241 2.12626 11.7523 2.38939 12.2233 2.86472C12.6944 3.34005 12.9533 3.96817 12.9533 4.63873C12.9533 5.10133 12.826 5.54695 12.5883 5.93316L13.5942 6.94324L15.4064 5.16074C15.7459 4.82546 16.1448 4.56658 16.5862 4.38408C17.0276 4.20584 17.4944 4.11247 17.974 4.11247H18.9034V3.65836C18.9034 1.64244 20.5459 0 22.5618 0H29.8955C30.4812 0 30.9565 0.475332 30.9565 1.06101V4.11247ZM12.0493 8.39894L11.1369 7.48223L10.3517 8.26313L11.2642 9.17984L12.0493 8.39894ZM7.2366 7.83024C7.33422 7.92785 7.44881 7.94483 7.50822 7.94483C7.56764 7.94483 7.68223 7.9321 7.77984 7.83448L10.721 4.9061C10.8186 4.80849 10.8355 4.6939 10.8355 4.63448C10.8355 4.57507 10.8228 4.46048 10.7252 4.36286C10.6276 4.26101 10.5215 4.24828 10.4536 4.24828C10.3942 4.24828 10.2796 4.26101 10.182 4.35862L7.24085 7.287C7.14324 7.38462 7.12626 7.49921 7.12626 7.55862C7.12626 7.61804 7.13899 7.73263 7.2366 7.83024ZM22.5618 2.12626C21.713 2.12626 21.0255 2.81379 21.0255 3.6626V4.11671H28.8345V2.12626H22.5618ZM33.1464 37.4324C33.435 37.1438 33.5963 36.7576 33.5963 36.3459V7.77507C33.5963 7.3634 33.435 6.97719 33.1464 6.68859C32.8578 6.4 32.4716 6.23873 32.0599 6.23873H17.974C17.7745 6.23873 17.5793 6.27692 17.3926 6.35332C17.2058 6.42971 17.0403 6.54005 16.896 6.68011L9.55385 13.8992C9.40955 14.0435 9.29496 14.209 9.21432 14.4C9.13369 14.591 9.09549 14.7905 9.09549 14.9942V36.3459C9.09549 36.7576 9.25676 37.1438 9.54536 37.4324C9.83395 37.721 10.2202 37.8822 10.6318 37.8822H32.0599C32.4716 37.8822 32.8578 37.721 33.1464 37.4324ZM27.6631 14.6631C28.079 14.2472 28.7496 14.2472 29.1655 14.6631C29.5814 15.079 29.5814 15.7496 29.1655 16.1655L26.3772 18.9538C26.6615 19.4801 26.8101 20.07 26.8101 20.6812V24.2886C26.8101 24.8997 26.6573 25.4897 26.3772 26.0159L29.1655 28.8042C29.5814 29.2202 29.5814 29.8907 29.1655 30.3066C28.9576 30.5146 28.6859 30.6164 28.4143 30.6164C28.1427 30.6164 27.8711 30.5146 27.6631 30.3066L24.8748 27.5183C24.3485 27.8027 23.7586 27.9512 23.1475 27.9512H19.5401C18.9289 27.9512 18.339 27.7984 17.8127 27.5183L15.0244 30.3066C14.8164 30.5146 14.5448 30.6164 14.2732 30.6164C14.0016 30.6164 13.73 30.5146 13.522 30.3066C13.1061 29.8907 13.1061 29.2202 13.522 28.8042L16.3103 26.0159C16.026 25.4897 15.8775 24.8997 15.8775 24.2886V20.6812C15.8775 20.07 16.0302 19.4801 16.3103 18.9538L13.522 16.1655C13.1061 15.7496 13.1061 15.079 13.522 14.6631C13.9379 14.2472 14.6085 14.2472 15.0244 14.6631L17.8127 17.4515C18.339 17.1671 18.9289 17.0186 19.5401 17.0186H23.1475C23.7629 17.0186 24.3485 17.1714 24.8748 17.4515L27.6631 14.6631ZM18.4536 25.3751C18.7422 25.6637 19.1284 25.8249 19.5401 25.8249H23.1475C23.5592 25.8249 23.9454 25.6637 24.234 25.3751C24.5225 25.0865 24.6838 24.7003 24.6838 24.2886V20.6812C24.6838 20.2695 24.5225 19.8833 24.234 19.5947C23.9454 19.3061 23.5592 19.1448 23.1475 19.1448H19.5401C19.1284 19.1448 18.7422 19.3061 18.4536 19.5947C18.165 19.8833 18.0037 20.2695 18.0037 20.6812V24.2886C18.0037 24.7003 18.165 25.0865 18.4536 25.3751Z" fill="black"/>
</svg>
