<svg viewBox="0 0 20 20" fill="none" xmlns="http://www.w3.org/2000/svg">
<path d="M17.4216 4.48162L14.5928 2.1243C14.3655 1.93465 14.0275 1.96555 13.8384 2.19287C13.6489 2.42019 13.6796 2.75787 13.907 2.94733L16.2666 4.91394C16.0191 5.11036 15.8571 5.41001 15.8571 5.75001C15.8571 6.3409 16.3377 6.82143 16.9286 6.82143V11.6429C16.9286 12.2338 16.448 12.7143 15.8571 12.7143C15.2662 12.7143 14.7857 12.2338 14.7857 11.6429V8.96429C14.7857 8.07804 14.0648 7.35715 13.1786 7.35715H12.6428V4.14287C12.6428 2.96126 11.6816 2.00001 10.5 2.00001H6.21428C5.03268 2.00001 4.07143 2.96126 4.07143 4.14287V14.695L3.09 16.1671C2.98036 16.3314 2.97018 16.5429 3.06339 16.717C3.15661 16.8912 3.33821 17 3.53571 17H13.1786C13.3761 17 13.5577 16.8912 13.6511 16.717C13.7441 16.5427 13.7339 16.3314 13.6245 16.1671L12.6428 14.695V8.42858H13.1786C13.4739 8.42858 13.7143 8.66893 13.7143 8.96429V11.6429C13.7143 12.8245 14.6755 13.7857 15.8571 13.7857C17.0387 13.7857 18 12.8245 18 11.6429V5.71608C18 5.23751 17.7891 4.78769 17.4216 4.48162ZM10.7679 7.35715H5.94643C5.79857 7.35715 5.67857 7.23715 5.67857 7.08929V4.41072C5.67857 4.26287 5.79857 4.14287 5.94643 4.14287H10.7679C10.9157 4.14287 11.0357 4.26287 11.0357 4.41072V7.08929C11.0357 7.23715 10.9157 7.35715 10.7679 7.35715Z" fill="black"/>
</svg>
