<svg viewBox="0 0 40 40" fill="none" xmlns="http://www.w3.org/2000/svg">
<g clip-path="url(#clip0_207_670)">
<path d="M39.9355 9.34195C39.9093 9.26219 39.8742 9.18551 39.8309 9.1133V9.079C39.7784 8.99927 39.7159 8.92631 39.645 8.86178L39.5927 8.81605C39.5264 8.76266 39.4543 8.71665 39.3778 8.67886H39.3487L20.4732 0.104406C20.321 0.0356151 20.1555 0 19.9881 0C19.8206 0 19.6551 0.0356151 19.503 0.104406L0.627444 8.67886H0.598397C0.521823 8.71665 0.449732 8.76266 0.383439 8.81605L0.331152 8.86178C0.260249 8.92631 0.197798 8.99927 0.145245 9.079V9.1133C0.101972 9.18551 0.0669033 9.26219 0.0406709 9.34195V9.41055C0.0144081 9.5056 0.000739262 9.60358 3.55868e-06 9.70208V30.2808C-0.000546367 30.4994 0.0626499 30.7137 0.182098 30.8981C0.301546 31.0825 0.472234 31.2293 0.673921 31.3211L19.5494 39.8956C19.7016 39.9644 19.8671 40 20.0346 40C20.202 40 20.3675 39.9644 20.5197 39.8956L39.3952 31.3211C39.5839 31.2197 39.7402 31.0688 39.8469 30.8851C39.9536 30.7014 40.0064 30.4922 39.9994 30.2808V9.70208C39.9987 9.60358 39.985 9.5056 39.9587 9.41055L39.9355 9.34195ZM19.9619 2.40236L36.0605 9.70208L19.9619 17.0018L3.86342 9.70208L19.9619 2.40236ZM2.24834 11.4856L18.8 18.9911V37.0546L2.24834 29.5491V11.4856ZM21.1239 37.0546V18.9911L37.6755 11.4856V29.5491L21.1239 37.0546Z" fill="black"/>
</g>
<defs>
<clipPath id="clip0_207_670">
<rect width="40" height="40" fill="white"/>
</clipPath>
</defs>
</svg>
