<svg viewBox="0 0 286 46" fill="none" xmlns="http://www.w3.org/2000/svg">
<path d="M0.64 45V3H18.52C21.28 3 23.6 3.4 25.48 4.2C27.4 5 28.84 6.2 29.8 7.8C30.76 9.36 31.24 11.26 31.24 13.5C31.24 15.82 30.62 17.78 29.38 19.38C28.18 20.98 26.46 22.08 24.22 22.68V21.48C26.06 21.88 27.68 22.6 29.08 23.64C30.48 24.64 31.56 25.9 32.32 27.42C33.08 28.9 33.46 30.6 33.46 32.52C33.46 34.56 33.12 36.36 32.44 37.92C31.8 39.48 30.84 40.78 29.56 41.82C28.32 42.86 26.82 43.66 25.06 44.22C23.34 44.74 21.38 45 19.18 45H0.64ZM8.2 37.98H18.76C20.96 37.98 22.66 37.5 23.86 36.54C25.1 35.54 25.72 34.12 25.72 32.28C25.72 31.16 25.42 30.2 24.82 29.4C24.22 28.6 23.38 28 22.3 27.6C21.22 27.16 19.94 26.94 18.46 26.94H8.2V37.98ZM8.2 20.22H17.86C18.98 20.22 19.98 20 20.86 19.56C21.74 19.12 22.42 18.52 22.9 17.76C23.38 17 23.62 16.12 23.62 15.12C23.62 13.48 23.06 12.22 21.94 11.34C20.86 10.46 19.28 10.02 17.2 10.02H8.2V20.22ZM40.5128 45V0.599999H47.8328V45H40.5128ZM70.3802 45.6C67.2202 45.6 64.4002 44.9 61.9202 43.5C59.4402 42.06 57.4802 40.1 56.0402 37.62C54.6402 35.14 53.9402 32.32 53.9402 29.16C53.9402 26 54.6402 23.18 56.0402 20.7C57.4802 18.22 59.4402 16.28 61.9202 14.88C64.4002 13.44 67.2202 12.72 70.3802 12.72C73.5002 12.72 76.3002 13.44 78.7802 14.88C81.2602 16.28 83.2002 18.22 84.6002 20.7C86.0402 23.18 86.7602 26 86.7602 29.16C86.7602 32.32 86.0402 35.14 84.6002 37.62C83.2002 40.1 81.2602 42.06 78.7802 43.5C76.3002 44.9 73.5002 45.6 70.3802 45.6ZM70.3802 39.06C72.1002 39.06 73.6402 38.64 75.0002 37.8C76.3602 36.92 77.4202 35.74 78.1802 34.26C78.9802 32.74 79.3602 31.04 79.3202 29.16C79.3602 27.24 78.9802 25.54 78.1802 24.06C77.4202 22.54 76.3602 21.36 75.0002 20.52C73.6402 19.68 72.1002 19.26 70.3802 19.26C68.6602 19.26 67.1002 19.7 65.7002 20.58C64.3402 21.42 63.2802 22.6 62.5202 24.12C61.7602 25.6 61.3802 27.28 61.3802 29.16C61.3802 31.04 61.7602 32.74 62.5202 34.26C63.2802 35.74 64.3402 36.92 65.7002 37.8C67.1002 38.64 68.6602 39.06 70.3802 39.06ZM106.923 45.6C103.963 45.6 101.303 44.88 98.943 43.44C96.583 42 94.723 40.04 93.363 37.56C92.003 35.08 91.323 32.28 91.323 29.16C91.323 26.04 92.003 23.24 93.363 20.76C94.723 18.28 96.583 16.32 98.943 14.88C101.303 13.44 103.963 12.72 106.923 12.72C109.723 12.72 112.283 13.28 114.603 14.4C116.963 15.48 118.763 16.96 120.003 18.84L115.983 23.76C115.383 22.92 114.623 22.16 113.703 21.48C112.783 20.8 111.783 20.26 110.703 19.86C109.663 19.46 108.643 19.26 107.643 19.26C105.843 19.26 104.243 19.7 102.843 20.58C101.483 21.42 100.403 22.6 99.603 24.12C98.803 25.6 98.403 27.28 98.403 29.16C98.403 31.04 98.803 32.72 99.603 34.2C100.443 35.68 101.563 36.86 102.963 37.74C104.363 38.62 105.923 39.06 107.643 39.06C108.723 39.06 109.743 38.9 110.703 38.58C111.663 38.22 112.583 37.72 113.463 37.08C114.383 36.44 115.223 35.64 115.983 34.68L120.003 39.6C118.683 41.36 116.823 42.8 114.423 43.92C112.023 45.04 109.523 45.6 106.923 45.6ZM132.488 35.34L131.108 28.38L146.108 13.38H155.888L132.488 35.34ZM125.648 45V0.599999H132.968V45H125.648ZM146.948 45L135.368 30.96L140.528 26.52L156.068 45H146.948ZM174.962 45.6C171.482 45.6 168.422 44.94 165.782 43.62C163.182 42.3 161.022 40.4 159.302 37.92L161.582 35.4C163.262 37.92 165.202 39.76 167.402 40.92C169.642 42.08 172.262 42.66 175.262 42.66C177.262 42.66 179.062 42.32 180.662 41.64C182.262 40.92 183.542 39.96 184.502 38.76C185.462 37.52 185.942 36.1 185.942 34.5C185.942 33.5 185.742 32.62 185.342 31.86C184.982 31.06 184.442 30.36 183.722 29.76C183.002 29.12 182.122 28.54 181.082 28.02C180.042 27.5 178.862 27.04 177.542 26.64C176.222 26.2 174.762 25.78 173.162 25.38C171.162 24.86 169.402 24.26 167.882 23.58C166.402 22.9 165.122 22.1 164.042 21.18C163.002 20.22 162.202 19.14 161.642 17.94C161.122 16.7 160.862 15.28 160.862 13.68C160.862 11.52 161.482 9.6 162.722 7.92C163.962 6.2 165.642 4.86 167.762 3.9C169.882 2.9 172.242 2.4 174.842 2.4C178.082 2.4 180.802 2.96 183.002 4.08C185.202 5.2 186.982 6.8 188.342 8.88L186.122 11.04C184.842 9.2 183.282 7.8 181.442 6.84C179.642 5.84 177.422 5.34 174.782 5.34C172.782 5.34 170.962 5.7 169.322 6.42C167.722 7.1 166.442 8.06 165.482 9.3C164.562 10.54 164.102 11.98 164.102 13.62C164.102 14.82 164.322 15.88 164.762 16.8C165.202 17.72 165.862 18.52 166.742 19.2C167.622 19.84 168.682 20.42 169.922 20.94C171.202 21.46 172.682 21.92 174.362 22.32C176.642 22.88 178.682 23.52 180.482 24.24C182.322 24.92 183.882 25.72 185.162 26.64C186.442 27.56 187.422 28.62 188.102 29.82C188.782 30.98 189.122 32.34 189.122 33.9C189.122 36.22 188.522 38.26 187.322 40.02C186.122 41.74 184.442 43.1 182.282 44.1C180.162 45.1 177.722 45.6 174.962 45.6ZM209.996 45.6C206.916 45.6 204.196 44.9 201.836 43.5C199.476 42.06 197.616 40.12 196.256 37.68C194.896 35.2 194.216 32.38 194.216 29.22C194.216 26.1 194.896 23.34 196.256 20.94C197.616 18.5 199.476 16.58 201.836 15.18C204.196 13.78 206.916 13.08 209.996 13.08C212.596 13.08 214.956 13.58 217.076 14.58C219.196 15.58 220.916 16.96 222.236 18.72L220.436 20.88C219.596 19.88 218.636 19.02 217.556 18.3C216.476 17.54 215.296 16.96 214.016 16.56C212.776 16.16 211.496 15.96 210.176 15.96C207.656 15.96 205.416 16.54 203.456 17.7C201.536 18.82 200.016 20.38 198.896 22.38C197.776 24.34 197.196 26.62 197.156 29.22C197.196 31.82 197.776 34.14 198.896 36.18C200.016 38.22 201.556 39.84 203.516 41.04C205.476 42.2 207.696 42.78 210.176 42.78C211.536 42.78 212.816 42.6 214.016 42.24C215.256 41.84 216.396 41.28 217.436 40.56C218.516 39.8 219.496 38.92 220.376 37.92L222.176 40.08C220.776 41.76 219.016 43.1 216.896 44.1C214.776 45.1 212.476 45.6 209.996 45.6ZM248.894 45V23.52C248.894 21.2 248.074 19.36 246.434 18C244.834 16.64 242.634 15.96 239.834 15.96C237.754 15.96 235.834 16.4 234.074 17.28C232.314 18.16 230.774 19.44 229.454 21.12L227.414 19.08C229.054 17.08 230.934 15.58 233.054 14.58C235.214 13.58 237.554 13.08 240.074 13.08C242.474 13.08 244.534 13.48 246.254 14.28C248.014 15.04 249.354 16.18 250.274 17.7C251.194 19.22 251.654 21.04 251.654 23.16V45H248.894ZM236.834 45.6C234.794 45.6 232.974 45.2 231.374 44.4C229.774 43.6 228.494 42.5 227.534 41.1C226.614 39.66 226.154 37.98 226.154 36.06C226.154 34.62 226.414 33.34 226.934 32.22C227.494 31.1 228.314 30.16 229.394 29.4C230.474 28.64 231.834 28.06 233.474 27.66C235.114 27.26 237.014 27.06 239.174 27.06H250.214L249.974 29.7H238.634C237.074 29.7 235.694 29.84 234.494 30.12C233.334 30.4 232.334 30.82 231.494 31.38C230.694 31.9 230.074 32.56 229.634 33.36C229.234 34.12 229.034 35.02 229.034 36.06C229.034 37.42 229.374 38.62 230.054 39.66C230.774 40.66 231.734 41.44 232.934 42C234.134 42.56 235.454 42.84 236.894 42.84C238.734 42.84 240.434 42.52 241.994 41.88C243.594 41.24 245.014 40.36 246.254 39.24C247.534 38.08 248.554 36.74 249.314 35.22L250.334 37.08C249.414 38.72 248.274 40.18 246.914 41.46C245.554 42.74 244.014 43.76 242.294 44.52C240.574 45.24 238.754 45.6 236.834 45.6ZM259.942 45V13.5H262.942L263.002 20.46L262.282 20.88C262.722 19.48 263.522 18.2 264.682 17.04C265.882 15.84 267.322 14.88 269.002 14.16C270.682 13.44 272.422 13.08 274.222 13.08C276.582 13.08 278.582 13.52 280.222 14.4C281.862 15.28 283.102 16.64 283.942 18.48C284.822 20.32 285.262 22.66 285.262 25.5V45H282.202V25.62C282.202 23.34 281.862 21.48 281.182 20.04C280.542 18.6 279.562 17.56 278.242 16.92C276.962 16.24 275.382 15.92 273.502 15.96C271.982 15.96 270.582 16.22 269.302 16.74C268.022 17.22 266.902 17.86 265.942 18.66C265.022 19.46 264.302 20.3 263.782 21.18C263.262 22.06 263.002 22.88 263.002 23.64V45H261.502C261.302 45 261.062 45 260.782 45C260.502 45 260.222 45 259.942 45Z" fill="white"/>
</svg>
