<svg  viewBox="0 0 320 62" fill="none" xmlns="http://www.w3.org/2000/svg">
<path d="M21.4 47.6C18.4 47.6 15.64 47.08 13.12 46.04C10.6 45 8.42 43.52 6.58 41.6C4.74 39.64 3.3 37.34 2.26 34.7C1.26 32.02 0.76 29.1 0.76 25.94C0.76 22.9 1.3 20.08 2.38 17.48C3.46 14.88 4.96 12.6 6.88 10.64C8.8 8.68 11.04 7.16 13.6 6.08C16.16 5 18.92 4.46 21.88 4.46C23.92 4.46 25.9 4.76 27.82 5.36C29.74 5.96 31.5 6.8 33.1 7.88C34.74 8.92 36.08 10.16 37.12 11.6L32.14 16.94C30.58 15.34 28.94 14.12 27.22 13.28C25.54 12.44 23.76 12.02 21.88 12.02C20.04 12.02 18.3 12.36 16.66 13.04C15.06 13.72 13.66 14.68 12.46 15.92C11.3 17.16 10.38 18.64 9.7 20.36C9.02 22.04 8.68 23.92 8.68 26C8.68 28.12 9 30.06 9.64 31.82C10.32 33.54 11.26 35.02 12.46 36.26C13.7 37.5 15.16 38.44 16.84 39.08C18.56 39.72 20.46 40.04 22.54 40.04C23.82 40.04 25.08 39.88 26.32 39.56C27.56 39.2 28.72 38.68 29.8 38C30.88 37.32 31.84 36.54 32.68 35.66L36.52 41.84C35.56 42.92 34.28 43.9 32.68 44.78C31.08 45.66 29.3 46.36 27.34 46.88C25.38 47.36 23.4 47.6 21.4 47.6ZM43.3356 47V2.6H50.5956V21.86L49.2156 22.58C49.6556 21.18 50.4356 19.9 51.5556 18.74C52.7156 17.54 54.0956 16.58 55.6956 15.86C57.2956 15.1 58.9556 14.72 60.6756 14.72C63.0756 14.72 65.0756 15.2 66.6756 16.16C68.3156 17.12 69.5356 18.56 70.3356 20.48C71.1356 22.4 71.5356 24.8 71.5356 27.68V47H64.2156V28.22C64.2156 26.58 63.9956 25.24 63.5556 24.2C63.1156 23.12 62.4356 22.34 61.5156 21.86C60.5956 21.34 59.4756 21.12 58.1556 21.2C57.0756 21.2 56.0756 21.38 55.1556 21.74C54.2356 22.06 53.4356 22.54 52.7556 23.18C52.1156 23.78 51.5956 24.5 51.1956 25.34C50.8356 26.14 50.6556 27.02 50.6556 27.98V47H46.9956C46.3156 47 45.6556 47 45.0156 47C44.4156 47 43.8556 47 43.3356 47ZM97.9581 47V26.78C97.9581 25.06 97.3781 23.72 96.2181 22.76C95.0981 21.76 93.6381 21.26 91.8381 21.26C90.1581 21.26 88.6381 21.6 87.2781 22.28C85.9181 22.92 84.6581 23.96 83.4981 25.4L78.9381 20.84C80.8181 18.84 82.8981 17.32 85.1781 16.28C87.4581 15.24 89.9181 14.72 92.5581 14.72C95.0781 14.72 97.2381 15.12 99.0381 15.92C100.878 16.72 102.298 17.92 103.298 19.52C104.298 21.08 104.798 23 104.798 25.28V47H97.9581ZM88.9581 47.6C86.9181 47.6 85.0981 47.2 83.4981 46.4C81.8981 45.6 80.6181 44.5 79.6581 43.1C78.7381 41.66 78.2781 39.98 78.2781 38.06C78.2781 36.38 78.5781 34.92 79.1781 33.68C79.7781 32.4 80.6581 31.34 81.8181 30.5C83.0181 29.66 84.4981 29.04 86.2581 28.64C88.0581 28.2 90.1181 27.98 92.4381 27.98H101.498L100.958 33.26H92.0181C90.9381 33.26 89.9781 33.36 89.1381 33.56C88.2981 33.76 87.5781 34.06 86.9781 34.46C86.3781 34.86 85.9381 35.34 85.6581 35.9C85.3781 36.42 85.2381 37.06 85.2381 37.82C85.2381 38.62 85.4381 39.32 85.8381 39.92C86.2381 40.48 86.7781 40.92 87.4581 41.24C88.1381 41.56 88.9381 41.72 89.8581 41.72C91.1781 41.72 92.4181 41.5 93.5781 41.06C94.7781 40.62 95.8381 40 96.7581 39.2C97.6781 38.4 98.3981 37.5 98.9181 36.5L100.418 40.58C99.5781 41.98 98.5381 43.2 97.2981 44.24C96.0981 45.28 94.7781 46.1 93.3381 46.7C91.9381 47.3 90.4781 47.6 88.9581 47.6ZM113.433 47V15.38H120.753V47H113.433ZM117.033 8.66C115.553 8.66 114.393 8.3 113.553 7.58C112.753 6.82 112.353 5.76 112.353 4.4C112.353 3.12 112.773 2.1 113.613 1.34C114.453 0.539999 115.593 0.139999 117.033 0.139999C118.513 0.139999 119.653 0.519999 120.453 1.28C121.293 2 121.713 3.04 121.713 4.4C121.713 5.64 121.293 6.66 120.453 7.46C119.613 8.26 118.473 8.66 117.033 8.66ZM130.113 47V15.38H137.253L137.373 21.86L135.993 22.58C136.433 21.18 137.213 19.9 138.333 18.74C139.493 17.54 140.873 16.58 142.473 15.86C144.073 15.1 145.733 14.72 147.453 14.72C149.853 14.72 151.853 15.2 153.453 16.16C155.093 17.12 156.313 18.56 157.113 20.48C157.913 22.4 158.313 24.8 158.313 27.68V47H150.993V28.22C150.993 26.58 150.773 25.24 150.333 24.2C149.893 23.12 149.213 22.34 148.293 21.86C147.373 21.34 146.253 21.12 144.933 21.2C143.853 21.2 142.853 21.38 141.933 21.74C141.013 22.06 140.213 22.54 139.533 23.18C138.893 23.78 138.373 24.5 137.973 25.34C137.613 26.14 137.433 27.02 137.433 27.98V47H133.773C133.093 47 132.433 47 131.793 47C131.193 47 130.633 47 130.113 47ZM180.715 47.6C177.235 47.6 174.175 46.94 171.535 45.62C168.935 44.3 166.775 42.4 165.055 39.92L167.335 37.4C169.015 39.92 170.955 41.76 173.155 42.92C175.395 44.08 178.015 44.66 181.015 44.66C183.015 44.66 184.815 44.32 186.415 43.64C188.015 42.92 189.295 41.96 190.255 40.76C191.215 39.52 191.695 38.1 191.695 36.5C191.695 35.5 191.495 34.62 191.095 33.86C190.735 33.06 190.195 32.36 189.475 31.76C188.755 31.12 187.875 30.54 186.835 30.02C185.795 29.5 184.615 29.04 183.295 28.64C181.975 28.2 180.515 27.78 178.915 27.38C176.915 26.86 175.155 26.26 173.635 25.58C172.155 24.9 170.875 24.1 169.795 23.18C168.755 22.22 167.955 21.14 167.395 19.94C166.875 18.7 166.615 17.28 166.615 15.68C166.615 13.52 167.235 11.6 168.475 9.92C169.715 8.2 171.395 6.86 173.515 5.9C175.635 4.9 177.995 4.4 180.595 4.4C183.835 4.4 186.555 4.96 188.755 6.08C190.955 7.2 192.735 8.8 194.095 10.88L191.875 13.04C190.595 11.2 189.035 9.8 187.195 8.84C185.395 7.84 183.175 7.34 180.535 7.34C178.535 7.34 176.715 7.7 175.075 8.42C173.475 9.1 172.195 10.06 171.235 11.3C170.315 12.54 169.855 13.98 169.855 15.62C169.855 16.82 170.075 17.88 170.515 18.8C170.955 19.72 171.615 20.52 172.495 21.2C173.375 21.84 174.435 22.42 175.675 22.94C176.955 23.46 178.435 23.92 180.115 24.32C182.395 24.88 184.435 25.52 186.235 26.24C188.075 26.92 189.635 27.72 190.915 28.64C192.195 29.56 193.175 30.62 193.855 31.82C194.535 32.98 194.875 34.34 194.875 35.9C194.875 38.22 194.275 40.26 193.075 42.02C191.875 43.74 190.195 45.1 188.035 46.1C185.915 47.1 183.475 47.6 180.715 47.6ZM213.23 47.6C210.87 47.6 208.85 47.14 207.17 46.22C205.49 45.3 204.19 43.92 203.27 42.08C202.39 40.24 201.95 37.92 201.95 35.12V15.5H205.01V34.46C205.01 37.98 205.81 40.6 207.41 42.32C209.01 44 211.27 44.84 214.19 44.84C215.55 44.84 216.81 44.58 217.97 44.06C219.13 43.5 220.15 42.82 221.03 42.02C221.95 41.22 222.65 40.36 223.13 39.44C223.65 38.48 223.91 37.6 223.91 36.8V15.5H226.97V47H224.03L223.91 39.92L224.63 39.62C224.15 41.06 223.35 42.4 222.23 43.64C221.11 44.84 219.77 45.8 218.21 46.52C216.69 47.24 215.03 47.6 213.23 47.6ZM235.462 47V15.5H238.462L238.522 23.96L238.102 23.18C238.422 21.78 239.042 20.48 239.962 19.28C240.882 18.04 242.062 17.04 243.502 16.28C244.942 15.48 246.562 15.08 248.362 15.08C249.042 15.08 249.682 15.14 250.282 15.26C250.922 15.34 251.442 15.46 251.842 15.62L251.002 18.86C250.402 18.66 249.802 18.52 249.202 18.44C248.642 18.32 248.122 18.26 247.642 18.26C246.242 18.26 244.982 18.54 243.862 19.1C242.742 19.66 241.782 20.42 240.982 21.38C240.182 22.3 239.582 23.32 239.182 24.44C238.782 25.52 238.582 26.62 238.582 27.74V47H235.462ZM268.889 61.22C266.649 61.22 264.529 60.84 262.529 60.08C260.529 59.32 258.889 58.28 257.609 56.96L258.749 54.56C259.989 55.72 261.489 56.64 263.249 57.32C265.009 58 266.869 58.34 268.829 58.34C271.069 58.34 273.089 57.82 274.889 56.78C276.689 55.78 278.109 54.3 279.149 52.34C280.229 50.42 280.769 48.1 280.769 45.38V37.76H281.369C280.969 39.64 280.149 41.32 278.909 42.8C277.669 44.24 276.149 45.4 274.349 46.28C272.589 47.16 270.709 47.6 268.709 47.6C265.749 47.6 263.109 46.9 260.789 45.5C258.469 44.1 256.649 42.2 255.329 39.8C254.009 37.36 253.349 34.56 253.349 31.4C253.349 28.24 254.029 25.44 255.389 23C256.749 20.56 258.569 18.64 260.849 17.24C263.129 15.8 265.669 15.08 268.469 15.08C269.749 15.08 270.969 15.26 272.129 15.62C273.329 15.94 274.449 16.4 275.489 17C276.529 17.6 277.469 18.32 278.309 19.16C279.149 19.96 279.849 20.84 280.409 21.8C280.969 22.76 281.349 23.74 281.549 24.74L280.769 24.8L280.829 15.5H283.769V45.56C283.769 48 283.389 50.18 282.629 52.1C281.909 54.06 280.869 55.7 279.509 57.02C278.189 58.38 276.609 59.42 274.769 60.14C272.969 60.86 271.009 61.22 268.889 61.22ZM268.889 44.72C271.209 44.72 273.249 44.16 275.009 43.04C276.809 41.88 278.229 40.3 279.269 38.3C280.309 36.26 280.829 33.94 280.829 31.34C280.829 28.74 280.309 26.44 279.269 24.44C278.269 22.44 276.849 20.86 275.009 19.7C273.209 18.54 271.129 17.96 268.769 17.96C266.409 17.96 264.289 18.54 262.409 19.7C260.529 20.86 259.049 22.46 257.969 24.5C256.929 26.5 256.409 28.8 256.409 31.4C256.409 33.96 256.929 36.24 257.969 38.24C259.049 40.24 260.529 41.82 262.409 42.98C264.329 44.14 266.489 44.72 268.889 44.72ZM306.278 47.6C303.198 47.6 300.458 46.9 298.058 45.5C295.698 44.1 293.838 42.18 292.478 39.74C291.158 37.3 290.498 34.5 290.498 31.34C290.498 28.94 290.858 26.76 291.578 24.8C292.338 22.8 293.378 21.08 294.698 19.64C296.058 18.16 297.678 17.04 299.558 16.28C301.438 15.48 303.498 15.08 305.738 15.08C307.738 15.08 309.578 15.44 311.258 16.16C312.978 16.84 314.458 17.82 315.698 19.1C316.978 20.38 317.938 21.92 318.578 23.72C319.258 25.52 319.558 27.52 319.478 29.72L319.418 31.7H292.598L292.118 29.06H317.078L316.358 30.08V28.58C316.358 26.5 315.858 24.66 314.858 23.06C313.898 21.46 312.618 20.22 311.018 19.34C309.458 18.42 307.698 17.96 305.738 17.96C303.258 17.96 301.098 18.52 299.258 19.64C297.418 20.72 295.998 22.26 294.998 24.26C294.038 26.22 293.558 28.54 293.558 31.22C293.558 33.9 294.098 36.26 295.178 38.3C296.298 40.3 297.818 41.88 299.738 43.04C301.698 44.16 303.978 44.72 306.578 44.72C308.458 44.72 310.198 44.4 311.798 43.76C313.438 43.12 314.978 42.12 316.418 40.76L317.978 42.98C317.018 43.9 315.918 44.72 314.678 45.44C313.438 46.12 312.098 46.64 310.658 47C309.258 47.4 307.798 47.6 306.278 47.6Z" fill="white"/>
</svg>
