<svg viewBox="0 0 40 40" fill="none" xmlns="http://www.w3.org/2000/svg">
<g clip-path="url(#clip0_207_666)">
<path fill-rule="evenodd" clip-rule="evenodd" d="M5.83784 5.83784C9.62162 2.05405 14.6486 0 20 0C25.3514 0 30.3784 2.05405 34.1622 5.83784C37.9459 9.62162 40 14.6486 40 20C40 25.3514 37.9459 30.3784 34.1622 34.1622C30.3784 37.9459 25.3514 40 20 40C14.6486 40 9.62162 37.9459 5.83784 34.1622C2.05405 30.3784 0 25.3514 0 20C0 14.6486 2.05405 9.62162 5.83784 5.83784ZM20 37.8378C24.7568 37.8378 29.2432 36 32.5946 32.5946C36 29.2432 37.8378 24.7568 37.8378 20C37.8378 15.2432 35.9459 10.8108 32.5946 7.40541C29.2432 4 24.7568 2.16216 20 2.16216C15.2432 2.16216 10.8108 4.05405 7.40541 7.40541C4 10.7568 2.16216 15.2432 2.16216 20C2.16216 24.7568 4.05405 29.1892 7.40541 32.5946C10.7568 36 15.2432 37.8378 20 37.8378ZM21.5676 14.5946V18.5405C23.7297 19.0811 26.7568 20.1622 26.6486 23.4054C26.6486 25.5135 25.2973 27.7838 21.4595 28.2703V30.2703H18.7027V28.2703C16.5405 28.0541 14.6486 27.1351 13.3513 25.7838L12.8108 25.2432L14.8649 23.1351L15.4595 23.7297C16 24.2703 17.0811 25.1351 18.7568 25.4595V20.9189C16.4324 20.3243 13.6757 19.4054 13.6757 16.3784C13.6757 14 15.7297 12.1622 18.7568 11.7838V9.72973H21.5135V11.7838C23.3513 12.0541 24.9189 12.7568 26.1081 13.9459L26.7027 14.5405L24.5946 16.5946L24.0541 16C23.4054 15.2973 22.5946 14.8108 21.5676 14.5946ZM21.5676 21.6216V25.4595C23.5135 25.0811 23.6757 23.8919 23.6757 23.5135C23.6757 22.6486 23.0811 22.1081 21.5676 21.6216ZM18.8108 17.7838V14.5405C17.6216 14.8108 16.8649 15.5135 16.8649 16.2703C16.8649 16.9189 17.4054 17.3514 18.8108 17.7838Z" fill="black"/>
</g>
<defs>
<clipPath id="clip0_207_666">
<rect width="40" height="40" fill="white"/>
</clipPath>
</defs>
</svg>
