<svg viewBox="0 0 34 34" fill="none" xmlns="http://www.w3.org/2000/svg">
<path d="M17 0C7.62316 0 0 7.62316 0 17C0 26.3768 7.62316 34 17 34C26.3768 34 34 26.3768 34 17C34 7.62316 26.3768 0 17 0ZM1.21685 17.6084H8.1958C8.23159 20.1137 8.55369 22.5116 9.09054 24.5874H3.14947C2.00421 22.5116 1.32422 20.1137 1.21685 17.6084ZM17.6084 8.1958V1.25263C19.9347 1.64632 22.0105 4.33054 23.2632 8.1958H17.6084ZM23.6211 9.41263C24.1937 11.5242 24.5516 13.8863 24.5874 16.3916H17.6084V9.41263H23.6211ZM16.3916 1.25263V8.1958H10.7368C12.0253 4.33054 14.0653 1.64632 16.3916 1.25263ZM16.3916 9.41263V16.3916H9.41263C9.44842 13.8863 9.80632 11.4884 10.3789 9.41263H16.3916ZM8.1958 16.3916H1.21685C1.32422 13.8505 2.00421 11.4884 3.14947 9.41263H9.09054C8.55369 11.5242 8.26738 13.8863 8.1958 16.3916ZM9.41263 17.6084H16.3916V24.5874H10.3789C9.80632 22.5116 9.44842 20.1137 9.41263 17.6084ZM16.3916 25.8042V32.7474C14.0653 32.3537 11.9895 29.6695 10.7368 25.8042H16.3916ZM17.6084 32.7474V25.8042H23.2632C21.9747 29.6695 19.9347 32.3537 17.6084 32.7474ZM17.6084 24.5874V17.6084H24.5874C24.5516 20.1137 24.1937 22.5116 23.6211 24.5874H17.6084ZM25.8042 17.6084H32.7832C32.6758 20.1495 31.9958 22.5116 30.8505 24.5874H24.9095C25.4463 22.4758 25.7326 20.1137 25.8042 17.6084ZM25.8042 16.3916C25.7684 13.8863 25.4463 11.4884 24.9095 9.41263H30.8505C31.9958 11.4884 32.6758 13.8863 32.7832 16.3916H25.8042ZM30.0989 8.1958H24.5516C23.6926 5.36843 22.4042 3.11369 20.8653 1.68211C24.6947 2.64843 27.9516 5.01054 30.0989 8.1958ZM13.0989 1.68211C11.56 3.11369 10.2716 5.36843 9.41263 8.1958H3.86526C6.04842 5.01054 9.30525 2.64843 13.0989 1.68211ZM3.90106 25.8042H9.44843C10.3074 28.6316 11.5958 30.8863 13.1347 32.3179C9.30527 31.3516 6.04843 28.9895 3.90106 25.8042ZM20.9011 32.3179C22.44 30.8863 23.7284 28.6316 24.5874 25.8042H30.1347C27.9516 28.9895 24.6947 31.3516 20.9011 32.3179Z" fill="black"/>
</svg>
