<svg viewBox="0 0 40 40" fill="none" xmlns="http://www.w3.org/2000/svg">
<rect width="40" height="40" rx="10" fill="#F8F9FA"/>
<path d="M13.1364 10C12.5107 10 12 10.5108 12 11.1364V28.8636C12 29.4893 12.5107 30 13.1364 30H26.3182C26.9438 30 27.4545 29.4893 27.4545 28.8636V11.1364C27.4545 10.5108 26.9438 10 26.3182 10H13.1364ZM13.1364 10.4545H26.3182C26.6998 10.4545 27 10.7547 27 11.1364V28.8636C27 29.2453 26.6998 29.5455 26.3182 29.5455H13.1364C12.7547 29.5455 12.4545 29.2453 12.4545 28.8636V11.1364C12.4545 10.7547 12.7547 10.4545 13.1364 10.4545ZM14.9545 13.1818C14.829 13.1818 14.7273 13.2836 14.7273 13.4091C14.7273 13.5346 14.829 13.6364 14.9545 13.6364H24.5C24.6255 13.6364 24.7273 13.5346 24.7273 13.4091C24.7273 13.2836 24.6255 13.1818 24.5 13.1818H14.9545ZM14.9545 17.2727C14.829 17.2727 14.7273 17.3745 14.7273 17.5C14.7273 17.6255 14.829 17.7273 14.9545 17.7273H24.5C24.6255 17.7273 24.7273 17.6255 24.7273 17.5C24.7273 17.3745 24.6255 17.2727 24.5 17.2727H14.9545ZM14.9545 21.3636C14.829 21.3636 14.7273 21.4654 14.7273 21.5909C14.7273 21.7164 14.829 21.8182 14.9545 21.8182H24.5C24.6255 21.8182 24.7273 21.7164 24.7273 21.5909C24.7273 21.4654 24.6255 21.3636 24.5 21.3636H14.9545ZM25.3736 23.1747C25.3238 23.1854 25.278 23.2135 25.2458 23.2528L22.4261 26.2855L20.7713 25.0426C20.6782 24.9554 20.5098 24.9704 20.4336 25.0726C20.3574 25.1749 20.3912 25.3406 20.5014 25.4048L22.3196 26.7685C22.4081 26.8322 22.5431 26.8194 22.6179 26.7401L25.5725 23.5582C25.6971 23.4271 25.5754 23.1645 25.3949 23.1747C25.3878 23.1747 25.3806 23.1747 25.3736 23.1747ZM14.9545 25.4545C14.829 25.4545 14.7273 25.5563 14.7273 25.6818C14.7273 25.8073 14.829 25.9091 14.9545 25.9091H18.8182C18.9437 25.9091 19.0455 25.8073 19.0455 25.6818C19.0455 25.5563 18.9437 25.4545 18.8182 25.4545H14.9545Z" fill="black"/>
</svg>
